<svg width="24" height="18" viewBox="0 0 24 18" fill="none" xmlns="http://www.w3.org/2000/svg">
<path d="M17.94 14.94C16.2306 16.243 14.1491 16.9649 12 17C5 17 1 9.00002 1 9.00002C2.24389 6.68192 3.96914 4.65663 6.06 3.06003M9.9 1.24002C10.5883 1.0789 11.2931 0.998364 12 1.00003C19 1.00003 23 9.00002 23 9.00002C22.393 10.1356 21.6691 11.2048 20.84 12.19M14.12 11.12C13.8454 11.4148 13.5141 11.6512 13.1462 11.8151C12.7782 11.9791 12.3809 12.0673 11.9781 12.0744C11.5753 12.0815 11.1752 12.0074 10.8016 11.8565C10.4281 11.7056 10.0887 11.4811 9.80385 11.1962C9.51897 10.9113 9.29439 10.572 9.14351 10.1984C8.99262 9.82486 8.91853 9.42475 8.92563 9.02193C8.93274 8.61912 9.02091 8.22187 9.18488 7.85387C9.34884 7.48588 9.58525 7.15467 9.88 6.88003" stroke="#939393" stroke-width="2" stroke-linecap="round" stroke-linejoin="round"/>
</svg>
