<svg width="300" height="250" viewBox="0 0 300 250" fill="none" xmlns="http://www.w3.org/2000/svg">
<g clip-path="url(#clip0_254_131)">
<path d="M253.299 173.614C252.988 173.204 252.757 172.719 252.62 172.192C252.484 171.664 252.447 171.108 252.51 170.561C252.574 170.014 252.738 169.491 252.989 169.028C253.241 168.565 253.575 168.173 253.968 167.881L251.457 154.805L256.934 157.247L258.479 169.29C258.848 170.108 258.952 171.06 258.772 171.963C258.591 172.867 258.139 173.661 257.5 174.194C256.862 174.727 256.082 174.962 255.307 174.855C254.533 174.748 253.818 174.306 253.299 173.614Z" fill="#FFB8B8"/>
<path d="M252.92 163.236L248.104 152.14L248.756 124.2L249.065 124.977C249.426 125.882 257.875 147.2 257.272 154.337L258.238 160.859L252.92 163.236Z" fill="#3F3D56"/>
<path d="M249.78 245.238H253.641L255.478 227.487L249.779 227.487L249.78 245.238Z" fill="#FFB8B8"/>
<path d="M248.795 243.735L256.399 243.735H256.4C257.685 243.735 258.917 244.344 259.826 245.427C260.735 246.51 261.245 247.979 261.245 249.51V249.698L248.795 249.699L248.795 243.735Z" fill="#2F2E41"/>
<path d="M211.628 241.74L215.349 242.973L221.109 226.458L215.618 224.638L211.628 241.74Z" fill="#FFB8B8"/>
<path d="M211.017 239.978L218.343 242.406L218.344 242.406C219.582 242.817 220.633 243.797 221.265 245.13C221.897 246.464 222.059 248.042 221.714 249.518L221.672 249.699L209.677 245.724L211.017 239.978Z" fill="#2F2E41"/>
<path d="M245.93 238.318L238.137 171.818L221.306 237.942L208.072 232.556L227.04 144.014L227.165 144.004L247.035 142.356L261.391 232.943L245.93 238.318Z" fill="#2F2E41"/>
<path d="M243.869 112.678C243.869 112.678 236.625 108.174 226.862 110.051C226.862 110.051 221.665 124.993 226.862 130.942L228.279 145.899C228.279 145.899 241.507 155.283 245.917 144.397L245.287 132.01C245.287 132.01 248.436 126.069 245.917 121.72C244.406 119.063 243.686 115.88 243.869 112.678Z" fill="#6C63FF"/>
<path d="M244.787 180.711L246.058 149.267L242.46 111.861L242.625 111.831C247.345 110.983 248.859 120.675 248.921 121.088L257.137 176.451L244.787 180.711Z" fill="#3F3D56"/>
<path d="M228.769 181.039L214.244 179.116L214.248 178.927C214.299 176.364 215.55 116.109 219.053 111.842C222.576 107.549 229.225 109.406 229.507 109.488L229.647 109.528L228.452 135.024L228.769 181.039Z" fill="#3F3D56"/>
<path d="M231.444 145.026C231.004 145.198 230.538 145.253 230.078 145.188C229.618 145.122 229.177 144.936 228.783 144.645C228.39 144.353 228.056 143.963 227.803 143.5C227.55 143.038 227.386 142.515 227.321 141.969L216.276 139.39L220.374 134.417L230.234 137.628C231.012 137.559 231.783 137.833 232.403 138.396C233.023 138.96 233.447 139.775 233.596 140.687C233.745 141.599 233.609 142.544 233.212 143.344C232.815 144.144 232.186 144.742 231.444 145.026Z" fill="#FFB8B8"/>
<path d="M225.55 142.008L221.951 141.086C216.638 142.99 207.365 136.286 203.617 133.308C202.912 132.748 202.683 131.637 202.937 130.009C203.312 127.731 204.366 125.691 205.903 124.266L219.104 111.791L222.436 111.127L223.425 117.811L215.015 128.578L227.396 136.609L225.55 142.008Z" fill="#3F3D56"/>
<path d="M224.127 104.392V95.7251C224.127 92.0582 225.349 88.5415 227.525 85.9486C229.7 83.3557 232.651 81.899 235.728 81.899C238.804 81.899 241.755 83.3557 243.931 85.9486C246.106 88.5415 247.328 92.0582 247.328 95.7251V104.392C247.328 104.885 247.163 105.357 246.871 105.705C246.579 106.053 246.183 106.249 245.77 106.249H225.685C225.272 106.249 224.876 106.053 224.584 105.705C224.292 105.357 224.127 104.885 224.127 104.392Z" fill="#2F2E41"/>
<path d="M235.261 106.164C239.958 106.164 243.766 101.626 243.766 96.0274C243.766 90.429 239.958 85.8906 235.261 85.8906C230.564 85.8906 226.756 90.429 226.756 96.0274C226.756 101.626 230.564 106.164 235.261 106.164Z" fill="#FFB8B8"/>
<path d="M226.523 95.9884C226.441 95.8766 226.381 95.7453 226.346 95.6034C226.311 95.4614 226.302 95.3122 226.32 95.1658L227.327 86.8042C227.347 86.6341 227.403 86.4726 227.488 86.3343C227.574 86.196 227.687 86.0853 227.817 86.0122C232.96 83.1438 238.175 83.1401 243.317 86.0014C243.453 86.0784 243.571 86.1964 243.658 86.3437C243.744 86.491 243.797 86.6626 243.812 86.8417L244.484 95.2141C244.496 95.3573 244.482 95.5017 244.444 95.6382C244.406 95.7746 244.344 95.9001 244.263 96.0065C244.182 96.113 244.083 96.198 243.973 96.2561C243.862 96.3143 243.743 96.3443 243.623 96.3443H241.917C241.752 96.3438 241.591 96.2876 241.452 96.1822C241.313 96.0768 241.202 95.9266 241.132 95.749L240.396 93.8692C240.349 93.7475 240.269 93.6475 240.17 93.5844C240.07 93.5213 239.956 93.4985 239.845 93.5194C239.733 93.5402 239.631 93.6037 239.552 93.7002C239.474 93.7967 239.424 93.9209 239.41 94.0542L239.265 95.4403C239.238 95.6897 239.137 95.9191 238.978 96.0856C238.82 96.252 238.617 96.344 238.406 96.3443H227.177C227.053 96.3443 226.93 96.3126 226.817 96.2512C226.704 96.1898 226.604 96.1001 226.523 95.9884Z" fill="#2F2E41"/>
<path d="M190.805 16.6599H0V158.269H190.805V16.6599Z" fill="#E6E6E6"/>
<path d="M47.7408 43.9406H12.7949V71.0129H47.7408V43.9406Z" fill="white"/>
<path d="M91.1637 43.9406H56.2178V71.0129H91.1637V43.9406Z" fill="white"/>
<path d="M134.587 43.9406H99.6411V71.0129H134.587V43.9406Z" fill="white"/>
<path d="M178.01 43.9406H143.064V71.0129H178.01V43.9406Z" fill="white"/>
<path d="M47.7408 82.2583H12.7949V109.331H47.7408V82.2583Z" fill="white"/>
<path d="M91.1637 82.2583H56.2178V109.331H91.1637V82.2583Z" fill="white"/>
<path d="M134.587 82.2583H99.6411V109.331H134.587V82.2583Z" fill="white"/>
<path d="M178.01 82.2583H143.064V109.331H178.01V82.2583Z" fill="white"/>
<path d="M47.7408 120.576H12.7949V147.649H47.7408V120.576Z" fill="white"/>
<path d="M91.1637 120.576H56.2178V147.649H91.1637V120.576Z" fill="white"/>
<path d="M134.587 120.576H99.6411V147.649H134.587V120.576Z" fill="white"/>
<path d="M178.01 120.576H143.064V147.649H178.01V120.576Z" fill="white"/>
<path d="M49.9728 33.3199C52.8679 33.3199 55.2147 30.5228 55.2147 27.0724C55.2147 23.622 52.8679 20.825 49.9728 20.825C47.0778 20.825 44.731 23.622 44.731 27.0724C44.731 30.5228 47.0778 33.3199 49.9728 33.3199Z" fill="white"/>
<path d="M136.638 33.3199C139.533 33.3199 141.88 30.5228 141.88 27.0724C141.88 23.622 139.533 20.825 136.638 20.825C133.743 20.825 131.396 23.622 131.396 27.0724C131.396 30.5228 133.743 33.3199 136.638 33.3199Z" fill="white"/>
<path d="M52.0695 0H47.876V28.7383H52.0695V0Z" fill="#E6E6E6"/>
<path d="M138.735 0H134.542V28.7383H138.735V0Z" fill="#E6E6E6"/>
<path d="M168.439 57.4767C168.438 59.7385 167.751 61.9235 166.506 63.6303C165.261 65.3372 163.54 66.4511 161.661 66.7675C159.782 67.0838 157.87 66.5814 156.277 65.3525C154.684 64.1235 153.517 62.2506 152.989 60.078C152.462 57.9053 152.61 55.5787 153.406 53.5258C154.203 51.4728 155.594 49.8314 157.325 48.9031C159.055 47.9749 161.009 47.8221 162.826 48.4728C164.644 49.1236 166.203 50.5342 167.218 52.4454C168.017 53.9506 168.441 55.6955 168.439 57.4767Z" fill="#6C63FF"/>
<path d="M167.218 52.4455L159.439 61.715C158.95 60.8129 156.227 56.6204 156.227 56.6204C156.576 56.2 156.948 55.8081 157.342 55.4474L159.6 59.0367L166.307 51.043C166.647 51.4751 166.952 51.9447 167.218 52.4455Z" fill="white"/>
<path d="M81.5937 95.7945C81.5919 98.0563 80.9053 100.241 79.6601 101.948C78.4149 103.655 76.6947 104.769 74.8156 105.085C72.9365 105.402 71.0248 104.899 69.4316 103.67C67.8384 102.441 66.6709 100.568 66.1435 98.3958C65.616 96.2231 65.7642 93.8966 66.5607 91.8436C67.3572 89.7907 68.7486 88.1493 70.4791 87.221C72.2097 86.2927 74.1632 86.1399 75.9806 86.7907C77.7981 87.4415 79.3576 88.8521 80.3723 90.7633C81.1715 92.2684 81.5951 94.0134 81.5937 95.7945Z" fill="#6C63FF"/>
<path d="M80.3721 90.7633L72.5931 100.033C72.1042 99.1308 69.3804 94.9383 69.3804 94.9383C69.7294 94.5178 70.102 94.1259 70.4953 93.7653L72.754 97.3546L79.4612 89.3608C79.8013 89.793 80.1063 90.2626 80.3721 90.7633Z" fill="white"/>
<path d="M38.1704 95.7946C38.1686 98.0564 37.482 100.241 36.2368 101.948C34.9916 103.655 33.2714 104.769 31.3923 105.085C29.5132 105.402 27.6015 104.899 26.0083 103.67C24.4151 102.441 23.2475 100.569 22.7201 98.3959C22.1927 96.2232 22.3409 93.8966 23.1374 91.8437C23.9339 89.7907 25.3253 88.1493 27.0558 87.221C28.7864 86.2927 30.7399 86.1399 32.5574 86.7907C34.3749 87.4415 35.9343 88.8521 36.9491 90.7634C37.7482 92.2685 38.1718 94.0134 38.1704 95.7946Z" fill="#6C63FF"/>
<path d="M36.9492 90.7633L29.1703 100.033C28.6813 99.1308 25.9575 94.9383 25.9575 94.9383C26.3066 94.5178 26.6791 94.1259 27.0725 93.7653L29.3312 97.3546L36.0383 89.3608C36.3784 89.793 36.6834 90.2626 36.9492 90.7633Z" fill="white"/>
<path d="M299.654 250H167.718C167.626 250 167.538 249.957 167.473 249.879C167.408 249.802 167.372 249.697 167.372 249.587C167.372 249.478 167.408 249.373 167.473 249.295C167.538 249.218 167.626 249.175 167.718 249.175H299.654C299.745 249.175 299.834 249.218 299.898 249.295C299.963 249.373 300 249.478 300 249.587C300 249.697 299.963 249.802 299.898 249.879C299.834 249.957 299.745 250 299.654 250Z" fill="#3F3D56"/>
</g>
<defs>
<clipPath id="clip0_254_131">
<rect width="300" height="250" fill="white"/>
</clipPath>
</defs>
</svg>
