<svg width="300" height="250" viewBox="0 0 300 250" fill="none" xmlns="http://www.w3.org/2000/svg">
<g clip-path="url(#clip0_254_103)">
<path d="M81.9097 204.471C90.054 204.471 96.6563 193.43 96.6563 179.812C96.6563 166.193 90.054 155.153 81.9097 155.153C73.7654 155.153 67.1631 166.193 67.1631 179.812C67.1631 193.43 73.7654 204.471 81.9097 204.471Z" fill="#E4E4E4"/>
<path opacity="0.2" d="M71.0213 163.341C69.6458 168.722 69.4592 174.745 70.4949 180.334C71.5305 185.923 73.721 190.715 76.6748 193.852C79.6286 196.989 83.1533 198.268 86.6191 197.46C90.0848 196.651 93.2658 193.809 95.5935 189.44C94.7532 192.727 93.4956 195.669 91.9078 198.063C90.3199 200.457 88.4398 202.245 86.3978 203.303C84.3557 204.361 82.2004 204.664 80.0814 204.191C77.9623 203.718 75.93 202.481 74.1254 200.564C72.3208 198.647 70.7869 196.097 69.6301 193.091C68.4734 190.085 67.7213 186.694 67.426 183.153C67.1307 179.612 67.2994 176.007 67.9202 172.586C68.541 169.165 69.5991 166.01 71.0213 163.341Z" fill="black"/>
<path d="M81.9506 179.812H81.9909L82.7203 249.724H81.1807L81.9506 179.812Z" fill="#3F3D56"/>
<path d="M52.0731 158.485C68.4936 158.485 81.805 136.226 81.805 108.768C81.805 81.3099 68.4936 59.0508 52.0731 59.0508C35.6527 59.0508 22.3413 81.3099 22.3413 108.768C22.3413 136.226 35.6527 158.485 52.0731 158.485Z" fill="#E4E4E4"/>
<path opacity="0.2" d="M30.1202 75.5608C27.3469 86.4087 26.9707 98.5522 29.0588 109.821C31.1469 121.09 35.5633 130.751 41.5187 137.076C47.4741 143.401 54.5806 145.979 61.5682 144.35C68.5557 142.72 74.9691 136.989 79.6622 128.18C77.9681 134.808 75.4325 140.74 72.2311 145.566C69.0297 150.393 65.2391 153.997 61.1219 156.131C57.0047 158.264 52.6594 158.875 48.3869 157.922C44.1144 156.968 40.017 154.473 36.3786 150.608C32.7401 146.744 29.6476 141.603 27.3153 135.541C24.983 129.48 23.4667 122.643 22.8714 115.504C22.2761 108.366 22.616 101.096 23.8677 94.199C25.1194 87.3019 27.2528 80.9423 30.1202 75.5608Z" fill="black"/>
<path d="M52.1548 108.768H52.2367L53.707 249.724H50.603L52.1548 108.768Z" fill="#3F3D56"/>
<path d="M248.096 176.766H111.818V244.32H248.096V176.766Z" fill="#F0F0F0"/>
<path d="M187.902 190.727H172.012V244.32H187.902V190.727Z" fill="#CACACA"/>
<path d="M240.151 97.0524H119.763V159.202H240.151V97.0524Z" fill="#F0F0F0"/>
<path d="M252.356 100.88H107.558C107.316 100.88 107.08 100.76 106.88 100.533C106.68 100.307 106.524 99.9858 106.434 99.6108C106.344 99.2359 106.322 98.8243 106.373 98.429C106.424 98.0338 106.544 97.6729 106.718 97.3928L146.292 33.7857V6.07985C146.292 5.54255 146.42 5.02742 146.647 4.64749C146.874 4.26755 147.182 4.05384 147.504 4.05324H155.314C155.635 4.05382 155.943 4.26753 156.171 4.64747C156.398 5.02741 156.526 5.54254 156.526 6.07985V17.3362L159.515 12.5318C164.406 4.6698 170.896 0.194843 177.679 0.00621426C184.463 -0.182415 191.038 3.92926 196.083 11.5149L253.166 97.3466C253.349 97.6207 253.477 97.9809 253.534 98.3795C253.592 98.7781 253.575 99.1965 253.488 99.5793C253.4 99.9621 253.245 100.291 253.043 100.524C252.841 100.756 252.601 100.88 252.356 100.88Z" fill="#CACACA"/>
<path d="M151.543 112.815C152.551 112.815 153.55 113.147 154.481 113.792C155.412 114.437 156.258 115.382 156.971 116.574C157.684 117.766 158.249 119.181 158.635 120.738C159.021 122.296 159.219 123.965 159.219 125.65V142.989H143.868V125.65C143.868 123.965 144.066 122.296 144.452 120.738C144.838 119.181 145.403 117.766 146.116 116.574C146.829 115.382 147.675 114.437 148.606 113.792C149.537 113.147 150.535 112.815 151.543 112.815Z" fill="white"/>
<path d="M179.957 113.04C181.993 113.04 183.945 114.392 185.385 116.8C186.824 119.207 187.633 122.471 187.633 125.875V143.214H172.281V125.875C172.281 122.471 173.09 119.207 174.529 116.8C175.969 114.392 177.921 113.04 179.957 113.04Z" fill="white"/>
<path d="M208.371 113.265C210.406 113.265 212.359 114.618 213.798 117.025C215.238 119.432 216.046 122.696 216.046 126.1V143.439H200.695V126.1C200.695 122.696 201.504 119.432 202.943 117.025C204.382 114.618 206.335 113.265 208.371 113.265Z" fill="white"/>
<path d="M219.682 190.052C221.718 190.052 223.67 191.404 225.11 193.811C226.549 196.218 227.358 199.483 227.358 202.887V220.226H212.006V202.887C212.006 199.483 212.815 196.218 214.255 193.811C215.694 191.404 217.646 190.052 219.682 190.052Z" fill="white"/>
<path d="M143.733 190.052C145.769 190.052 147.721 191.404 149.16 193.811C150.6 196.218 151.409 199.483 151.409 202.887V220.226H136.057V202.887C136.057 201.201 136.256 199.532 136.641 197.975C137.027 196.418 137.593 195.003 138.305 193.811C139.018 192.619 139.864 191.674 140.795 191.029C141.727 190.384 142.725 190.052 143.733 190.052Z" fill="white"/>
<path d="M268.006 177.821L242.441 158.906C242.304 158.804 242.156 158.752 242.006 158.752H120.171C120.032 158.752 119.894 158.797 119.765 158.884L91.9387 177.799C91.7072 177.957 91.5157 178.244 91.3968 178.611C91.278 178.979 91.2392 179.404 91.2871 179.814C91.335 180.224 91.4667 180.593 91.6596 180.859C91.8525 181.124 92.0945 181.27 92.3444 181.27H99.564V243.419H98.7561V249.724H261.158V243.419H259.812V181.269H267.57C267.817 181.269 268.056 181.128 268.248 180.867C268.44 180.607 268.573 180.245 268.624 179.841C268.675 179.436 268.641 179.015 268.529 178.647C268.416 178.28 268.232 177.988 268.006 177.821ZM257.657 243.419H101.719V181.269H257.657V243.419Z" fill="#CACACA"/>
<path d="M161.104 140.512H141.444V145.916H161.104V140.512Z" fill="#CACACA"/>
<path d="M189.922 140.512H170.261V145.916H189.922V140.512Z" fill="#CACACA"/>
<path d="M218.74 140.512H199.079V145.916H218.74V140.512Z" fill="#CACACA"/>
<path d="M229.513 218.424H209.852V223.828H229.513V218.424Z" fill="#CACACA"/>
<path d="M153.294 218.424H133.633V223.828H153.294V218.424Z" fill="#CACACA"/>
<path d="M299.67 250H0.330033C0.242503 250 0.158557 249.942 0.0966642 249.838C0.034771 249.735 0 249.594 0 249.448C0 249.302 0.034771 249.161 0.0966642 249.058C0.158557 248.954 0.242503 248.896 0.330033 248.896H299.67C299.758 248.896 299.841 248.954 299.903 249.058C299.965 249.161 300 249.302 300 249.448C300 249.594 299.965 249.735 299.903 249.838C299.841 249.942 299.758 250 299.67 250Z" fill="#3F3D56"/>
<path d="M224.378 96.1258C224.378 96.4791 224.375 96.8378 224.372 97.191C224.368 97.6159 224.362 98.0354 224.352 98.4603C224.342 98.8301 224.332 99.1943 224.319 99.5585C224.279 100.778 224.216 101.992 224.131 103.212C224.111 103.521 224.088 103.825 224.061 104.134C224.042 104.371 224.022 104.614 223.999 104.857C223.976 105.127 223.952 105.397 223.926 105.668C223.873 106.242 223.814 106.816 223.748 107.39C223.715 107.677 223.682 107.964 223.646 108.251C223.576 108.819 223.5 109.393 223.421 109.961C223.415 110.006 223.408 110.055 223.401 110.099C223.362 110.381 223.322 110.657 223.279 110.938C223.266 111.021 223.256 111.098 223.24 111.181C223.21 111.391 223.177 111.6 223.144 111.81C223.098 112.103 223.051 112.39 223.002 112.682C222.923 113.135 222.844 113.582 222.761 114.034C222.751 114.081 222.742 114.129 222.735 114.178C222.576 115.033 222.408 115.878 222.223 116.716C222.127 117.158 222.025 117.605 221.923 118.046C221.82 118.488 221.715 118.929 221.606 119.365C221.5 119.79 221.391 120.215 221.283 120.635C221.256 120.734 221.23 120.833 221.2 120.933C221.084 121.369 220.966 121.794 220.844 122.219C220.84 122.224 220.84 122.235 220.837 122.241C220.741 122.583 220.639 122.925 220.537 123.262C220.536 123.272 220.534 123.282 220.53 123.289C220.431 123.62 220.329 123.951 220.223 124.277L220.055 124.812L220.035 124.873C219.824 125.53 219.606 126.181 219.375 126.827C219.325 126.97 219.276 127.114 219.226 127.252C219.177 127.395 219.124 127.539 219.071 127.677C219.038 127.776 219.002 127.875 218.962 127.975C218.893 128.162 218.824 128.355 218.751 128.543C218.738 128.582 218.721 128.62 218.708 128.659C218.583 128.985 218.457 129.305 218.332 129.63C218.177 130.022 218.018 130.408 217.857 130.795L214.273 140.386L214.117 140.171L214.075 140.105H214.071L213.929 139.906L213.54 139.354C213.421 139.547 213.306 139.741 213.187 139.928C213.141 140.005 213.091 140.077 213.045 140.154C213.009 140.21 212.976 140.265 212.939 140.32C206.743 150.439 198.5 156.298 189.843 156.738H189.834C183.28 157.039 176.793 154.479 171.012 149.31C170.883 149.2 170.758 149.089 170.632 148.962C169.88 148.278 169.144 147.555 168.421 146.782C168.418 146.777 168.414 146.777 168.411 146.771C167.573 145.778 166.754 144.718 165.956 143.593C161.671 137.553 158.281 129.936 156.052 121.339C153.823 112.741 152.815 103.398 153.108 94.0396C153.117 93.6699 153.131 93.3057 153.147 92.9359C153.2 91.6003 153.281 90.2703 153.391 88.9458C153.421 88.576 153.454 88.2063 153.487 87.842H224.042C224.18 89.5308 224.276 91.2287 224.329 92.9359C224.362 94.0012 224.378 95.0608 224.378 96.1258Z" fill="#F0F0F0"/>
<path d="M224.042 87.8422C222.772 73.7171 218.513 60.8231 212.039 51.5041C205.565 42.1851 197.307 37.0597 188.765 37.0597C180.223 37.0597 171.964 42.1851 165.49 51.5041C159.017 60.8231 154.758 73.7171 153.487 87.8422C153.454 88.2064 153.421 88.5762 153.392 88.9459C153.283 90.2704 153.201 91.6004 153.147 92.936H224.329C224.276 91.2307 224.18 89.5328 224.042 87.8422Z" fill="#6C63FF"/>
<path d="M191.076 149.308H170.634V121.965C171.011 109.469 177.399 108.46 183.4 109.13C184.408 109.13 185.406 109.462 186.337 110.107C187.269 110.752 188.115 111.697 188.828 112.889C189.54 114.081 190.106 115.496 190.492 117.053C190.877 118.61 191.076 120.279 191.076 121.965V149.308Z" fill="#6C63FF"/>
<path d="M170.632 129.868V129.873C170.632 129.879 170.636 129.879 170.639 129.879L170.632 129.868ZM162.411 87.8422C162.398 87.9802 162.381 88.1181 162.368 88.2561C162.381 88.1181 162.398 87.9802 162.414 87.8422H162.411ZM162.002 92.936C161.992 93.1457 161.982 93.3554 161.976 93.5651C161.982 93.3554 161.992 93.1457 162.005 92.936C162.005 92.8973 162.006 92.8586 162.009 92.8201C162.005 92.8587 162.005 92.8974 162.002 92.936ZM170.632 129.873C170.632 129.879 170.636 129.879 170.639 129.879L170.632 129.868V129.873ZM162.411 87.8422C162.398 87.9802 162.381 88.1181 162.368 88.2561C162.381 88.1181 162.398 87.9802 162.414 87.8422H162.411ZM161.976 93.5651C161.982 93.3554 161.992 93.1457 162.005 92.936C162.005 92.8973 162.006 92.8586 162.009 92.8201C162.005 92.8587 162.005 92.8974 162.002 92.936C161.992 93.1457 161.982 93.3554 161.976 93.5651ZM263.936 195.088C263.872 194.975 263.803 194.868 263.731 194.768L263.728 194.763L247.385 171.7L246.962 171.104L245.355 168.835L244.952 168.267L242.662 165.033L242.035 164.15L240.738 162.318L240.075 161.38L233.817 152.555L230.23 147.495L229.748 146.816L219.177 131.898C219.339 131.512 219.497 131.126 219.652 130.734C219.778 130.408 219.903 130.088 220.028 129.763C220.042 129.724 220.058 129.685 220.071 129.647C220.144 129.459 220.213 129.266 220.282 129.078C220.322 128.979 220.358 128.88 220.391 128.78C220.444 128.642 220.497 128.499 220.547 128.355C220.596 128.217 220.645 128.074 220.695 127.931C220.926 127.285 221.144 126.634 221.355 125.977L221.375 125.916L221.543 125.381C221.649 125.055 221.751 124.724 221.85 124.393C221.854 124.385 221.857 124.376 221.857 124.365C221.959 124.029 222.061 123.687 222.157 123.344C222.16 123.339 222.16 123.328 222.164 123.322C222.286 122.897 222.405 122.472 222.52 122.036C222.55 121.937 222.576 121.838 222.603 121.738C222.711 121.319 222.82 120.894 222.926 120.469C223.035 120.033 223.141 119.592 223.243 119.15C223.345 118.709 223.447 118.262 223.543 117.82C223.725 116.976 223.895 116.13 224.055 115.282C224.062 115.233 224.071 115.185 224.081 115.138C224.164 114.686 224.243 114.238 224.322 113.786C224.372 113.493 224.418 113.206 224.464 112.914C224.497 112.704 224.53 112.495 224.56 112.285C224.576 112.202 224.586 112.125 224.599 112.042C224.642 111.761 224.682 111.485 224.721 111.203C224.728 111.159 224.735 111.109 224.741 111.065C224.82 110.497 224.896 109.923 224.966 109.354C225.002 109.067 225.035 108.78 225.068 108.493C225.131 107.92 225.193 107.346 225.246 106.772C225.273 106.501 225.296 106.231 225.319 105.96C225.342 105.718 225.362 105.475 225.381 105.237C225.408 104.928 225.431 104.625 225.451 104.316C225.537 103.096 225.599 101.882 225.639 100.662C225.652 100.298 225.662 99.9338 225.672 99.564C225.682 99.1391 225.688 98.7197 225.692 98.2948C225.695 97.9416 225.698 97.5829 225.698 97.2296C225.698 96.1645 225.682 95.1049 225.649 94.0398C225.596 92.3345 225.5 90.6366 225.362 88.946C224.179 74.4949 219.926 61.238 213.38 51.5985C206.834 41.959 198.432 36.5807 189.71 36.4468C180.987 36.3128 172.528 41.4322 165.877 50.869C159.226 60.3058 154.828 73.4299 153.487 87.8422C153.454 88.2064 153.421 88.5762 153.391 88.946C153.283 90.2705 153.201 91.6005 153.147 92.936C153.131 93.3058 153.117 93.67 153.108 94.0398C152.815 103.398 153.823 112.742 156.052 121.339C158.281 129.936 161.671 137.553 165.956 143.593C166.754 144.719 167.573 145.778 168.411 146.772C168.414 146.777 168.418 146.777 168.421 146.783C168.702 147.114 168.982 147.439 169.266 147.759C169.718 148.256 170.174 148.742 170.632 149.205C170.669 149.238 170.705 149.277 170.741 149.31C171.137 149.708 171.537 150.088 171.936 150.458H171.939C173.426 151.825 174.969 153.012 176.556 154.012C181.215 156.943 186.183 158.246 191.154 157.842H191.164C196.966 157.373 202.615 154.577 207.636 149.691C208.365 148.985 209.084 148.229 209.787 147.423C209.962 147.224 210.14 147.02 210.312 146.816C210.523 146.567 210.735 146.308 210.946 146.049C210.949 146.049 210.949 146.043 210.952 146.043C210.968 146.021 210.985 146.001 211.002 145.982C211.144 145.8 211.289 145.618 211.428 145.442C211.464 145.397 211.5 145.353 211.537 145.304C211.546 145.292 211.555 145.279 211.563 145.265C211.645 145.166 211.725 145.055 211.807 144.95C211.89 144.845 211.969 144.735 212.051 144.625C212.065 144.61 212.079 144.593 212.091 144.575C212.183 144.448 212.276 144.327 212.368 144.2C212.464 144.073 212.556 143.94 212.645 143.813C212.738 143.687 212.827 143.56 212.919 143.427C212.999 143.317 213.081 143.201 213.16 143.079C213.187 143.046 213.21 143.008 213.236 142.969C213.246 142.953 213.257 142.938 213.269 142.925C213.378 142.77 213.484 142.61 213.589 142.45C213.616 142.412 213.639 142.373 213.665 142.334C213.827 142.092 213.989 141.849 214.147 141.595C214.183 141.54 214.223 141.479 214.259 141.424C214.296 141.369 214.329 141.313 214.365 141.258C214.411 141.181 214.461 141.109 214.507 141.032C214.626 140.844 214.741 140.651 214.86 140.458L215.249 141.01L215.391 141.209H215.395L215.438 141.275L215.593 141.49L217.896 144.746L217.946 144.818L217.985 144.868L218.246 145.237L218.768 145.977L219.289 146.711L219.365 146.816L221.791 150.237L222.127 150.712L224.467 154.012L236.58 171.104L237.002 171.7L253.58 195.088L257.83 201.087L259.411 203.317C259.747 203.792 260.135 204.151 260.554 204.375C260.972 204.599 261.413 204.682 261.851 204.621C262.289 204.559 262.716 204.354 263.106 204.016C263.497 203.679 263.844 203.216 264.127 202.655C264.365 202.188 264.553 201.659 264.685 201.087C264.925 200.074 264.981 198.966 264.848 197.9C264.715 196.834 264.398 195.856 263.936 195.088ZM168.335 67.1579C171.646 60.5969 176 55.736 180.893 53.1369C185.786 50.5378 191.019 50.3064 195.987 52.4695C200.955 54.6326 205.456 59.1019 208.97 65.3612C212.483 71.6204 214.866 79.4142 215.844 87.8422C215.886 88.2119 215.926 88.5762 215.962 88.9459C216.098 90.2649 216.197 91.6005 216.256 92.936C216.273 93.3058 216.289 93.67 216.299 94.0398C216.329 94.8676 216.342 95.7009 216.342 96.5287C216.344 101.55 215.846 106.537 214.87 111.286V111.291C213.779 116.616 212.103 121.553 209.929 125.85C209.883 125.938 209.837 126.032 209.787 126.12C209.352 126.981 208.893 127.809 208.421 128.598C208.418 128.604 208.414 128.615 208.411 128.62C208.249 128.891 208.084 129.167 207.919 129.421C207.583 129.967 207.24 130.486 206.89 130.982C206.365 131.75 205.827 132.469 205.276 133.14C205.091 133.366 204.906 133.587 204.718 133.808C204.533 134.029 204.345 134.238 204.157 134.448C203.781 134.868 203.398 135.271 203.012 135.651C202.82 135.844 202.622 136.032 202.428 136.214C202.233 136.402 202.035 136.578 201.837 136.75C201.639 136.926 201.441 137.097 201.24 137.263C200.84 137.599 200.438 137.914 200.028 138.206C199.824 138.361 199.619 138.504 199.414 138.637C199.286 138.725 199.16 138.814 199.032 138.891C198.981 138.93 198.929 138.963 198.876 138.99C198.807 139.04 198.738 139.084 198.669 139.123C198.646 139.14 198.623 139.154 198.599 139.167C198.457 139.261 198.319 139.343 198.174 139.426C197.966 139.553 197.758 139.669 197.546 139.779C197.335 139.895 197.127 140.006 196.916 140.105C196.705 140.215 196.49 140.315 196.279 140.408C196.065 140.508 195.853 140.602 195.639 140.684C195.411 140.784 195.183 140.872 194.952 140.955C194.751 141.032 194.553 141.098 194.352 141.159C194.164 141.225 193.972 141.28 193.784 141.336C193.52 141.413 193.256 141.485 192.989 141.545C192.843 141.584 192.702 141.617 192.556 141.639C192.494 141.656 192.434 141.667 192.375 141.678C192.19 141.722 192.005 141.755 191.824 141.783C191.774 141.788 191.728 141.799 191.682 141.805C191.48 141.838 191.276 141.866 191.074 141.893C190.642 141.943 190.213 141.976 189.781 141.992C189.563 141.998 189.342 142.003 189.124 142.003C188.906 142.003 188.688 141.998 188.471 141.987C188.471 141.987 188.471 141.992 188.467 141.987C188.464 141.992 188.464 141.992 188.461 141.987C188.46 141.988 188.46 141.988 188.459 141.989C188.459 141.989 188.458 141.989 188.457 141.989C188.457 141.989 188.456 141.989 188.456 141.989C188.455 141.988 188.454 141.988 188.454 141.987C188.443 141.992 188.432 141.992 188.421 141.987C188.266 141.987 188.111 141.976 187.959 141.959C187.847 141.954 187.731 141.948 187.616 141.932C187.461 141.921 187.306 141.904 187.15 141.882C187.101 141.882 187.051 141.871 187.002 141.865C186.979 141.865 186.956 141.861 186.933 141.854C186.774 141.832 186.613 141.81 186.454 141.783C186.375 141.772 186.292 141.761 186.213 141.744C185.972 141.7 185.731 141.65 185.494 141.595C185.223 141.54 184.952 141.474 184.685 141.391C184.56 141.363 184.438 141.325 184.315 141.286C184.154 141.242 183.992 141.192 183.83 141.137C183.662 141.082 183.494 141.027 183.325 140.96C183.19 140.911 183.051 140.861 182.916 140.806C182.85 140.784 182.784 140.756 182.721 140.729C182.375 140.591 182.032 140.442 181.692 140.276C181.477 140.177 181.263 140.072 181.051 139.961C180.761 139.812 180.474 139.652 180.187 139.481C180.075 139.421 179.966 139.354 179.853 139.283C179.741 139.222 179.632 139.15 179.52 139.078C179.418 139.018 179.315 138.952 179.216 138.885C179.051 138.78 178.89 138.67 178.728 138.56C178.395 138.333 178.068 138.096 177.741 137.842C177.556 137.693 177.372 137.55 177.19 137.401C176.474 136.821 175.769 136.177 175.074 135.469C174.903 135.298 174.731 135.116 174.56 134.934C174.345 134.713 174.137 134.481 173.929 134.25C173.814 134.117 173.702 133.99 173.589 133.858C173.381 133.615 173.177 133.367 172.975 133.118C172.87 132.991 172.764 132.859 172.662 132.726C172.296 132.263 171.936 131.777 171.583 131.28C171.414 131.043 171.246 130.8 171.081 130.552C171.012 130.453 170.942 130.348 170.873 130.243C170.794 130.122 170.715 130.006 170.639 129.879L170.632 129.868C170.517 129.696 170.401 129.514 170.289 129.332C170.114 129.056 169.943 128.775 169.777 128.488C169.606 128.207 169.441 127.914 169.279 127.627C169.114 127.34 168.956 127.048 168.801 126.75C168.642 126.457 168.487 126.159 168.335 125.856C168.187 125.569 168.042 125.271 167.903 124.978C167.566 124.283 167.245 123.574 166.939 122.853C166.797 122.522 166.662 122.191 166.53 121.854C166.388 121.512 166.253 121.165 166.124 120.817C165.989 120.469 165.86 120.116 165.735 119.757C165.731 119.745 165.727 119.734 165.721 119.724C165.474 119.023 165.236 118.317 165.015 117.599C164.787 116.871 164.573 116.135 164.372 115.392C164.269 115.022 164.17 114.647 164.078 114.272C163.886 113.516 163.708 112.76 163.543 111.992C163.461 111.623 163.385 111.253 163.309 110.878C163.306 110.853 163.302 110.829 163.296 110.806C163.144 110.044 163.005 109.277 162.883 108.505C162.88 108.494 162.88 108.483 162.876 108.471C162.814 108.091 162.754 107.71 162.702 107.324C162.649 106.987 162.603 106.65 162.56 106.308C162.51 105.927 162.461 105.546 162.418 105.16C162.395 104.961 162.372 104.763 162.352 104.564C162.332 104.399 162.315 104.227 162.299 104.062C162.282 103.896 162.266 103.725 162.249 103.554C162.216 103.218 162.187 102.881 162.16 102.544C162.127 102.147 162.101 101.75 162.074 101.347C162.045 100.867 162.018 100.386 161.995 99.9008C161.979 99.5751 161.969 99.244 161.959 98.9129C161.949 98.6094 161.939 98.3059 161.936 98.0023C161.933 97.9862 161.933 97.9688 161.936 97.9527C161.935 97.9519 161.935 97.9511 161.935 97.9501C161.935 97.9492 161.934 97.9482 161.934 97.9471C161.934 97.9461 161.935 97.9451 161.935 97.9441C161.935 97.9432 161.935 97.9423 161.936 97.9416C161.933 97.9361 161.933 97.9361 161.936 97.9306C161.935 97.9299 161.935 97.929 161.935 97.9281C161.935 97.9271 161.934 97.9261 161.934 97.9251C161.934 97.924 161.935 97.923 161.935 97.9221C161.935 97.9211 161.935 97.9203 161.936 97.9195C161.933 97.7981 161.929 97.6768 161.929 97.5554C161.923 97.1966 161.919 96.8379 161.919 96.4792C161.919 96.1535 161.923 95.8334 161.926 95.5079C161.933 95.0553 161.942 94.6028 161.956 94.1502C161.956 94.0509 161.962 93.9571 161.966 93.8577C161.969 93.7584 161.972 93.6645 161.976 93.5651C161.982 93.3554 161.992 93.1457 162.005 92.936C162.005 92.8973 162.006 92.8586 162.009 92.8201C162.018 92.5828 162.032 92.3456 162.045 92.1083C162.071 91.6337 162.104 91.1536 162.14 90.6789C162.16 90.4416 162.177 90.2043 162.2 89.967C162.213 89.8015 162.23 89.6304 162.246 89.4593C162.259 89.2882 162.276 89.1171 162.296 88.946C162.319 88.7198 162.342 88.4879 162.368 88.2561C162.381 88.1181 162.398 87.9802 162.414 87.8422C162.477 87.2903 162.546 86.7385 162.622 86.1867C162.698 85.6293 162.784 85.0774 162.876 84.5255C162.966 83.9681 163.065 83.4107 163.17 82.8533C163.22 82.5719 163.273 82.2959 163.332 82.02C163.441 81.4626 163.556 80.9107 163.685 80.3644C163.744 80.094 163.807 79.818 163.876 79.5476C164.008 79.0012 164.147 78.4549 164.289 77.9195C164.362 77.6491 164.434 77.3787 164.513 77.1083C164.662 76.573 164.817 76.0377 164.985 75.5134C165.147 74.9781 165.322 74.4538 165.5 73.935C165.678 73.4163 165.863 72.8975 166.058 72.3842C166.147 72.1304 166.246 71.871 166.348 71.6227C166.546 71.1149 166.754 70.6072 166.966 70.1105C167.391 69.106 167.85 68.1181 168.335 67.1579ZM162.002 92.936C161.992 93.1457 161.982 93.3554 161.976 93.5651C161.982 93.3554 161.992 93.1457 162.005 92.936C162.005 92.8973 162.006 92.8586 162.009 92.8201C162.005 92.8587 162.005 92.8974 162.002 92.936ZM162.411 87.8422C162.398 87.9802 162.381 88.1181 162.368 88.2561C162.381 88.1181 162.398 87.9802 162.414 87.8422H162.411ZM170.632 129.868V129.873C170.632 129.879 170.636 129.879 170.639 129.879L170.632 129.868Z" fill="#3F3D56"/>
<path opacity="0.3" d="M171.583 131.28C166.363 123.914 162.99 113.534 162.135 102.202C161.28 90.8697 163.004 79.4142 166.966 70.1097C166.446 70.9859 165.943 71.9035 165.457 72.8626C163.152 77.4295 161.408 82.7107 160.324 88.4046C159.241 94.0985 158.838 100.094 159.14 106.048C159.441 112.002 160.441 117.798 162.083 123.106C163.724 128.414 165.974 133.129 168.705 136.983C174.221 144.766 181.36 148.565 188.551 147.547C195.742 146.528 202.397 140.774 207.051 131.551C207.535 130.591 207.992 129.607 208.42 128.6C203.601 136.696 197.138 141.466 190.314 141.962C183.49 142.459 176.804 138.645 171.583 131.28Z" fill="black"/>
</g>
<defs>
<clipPath id="clip0_254_103">
<rect width="300" height="250" fill="white"/>
</clipPath>
</defs>
</svg>
