<svg width="152" height="25" viewBox="0 0 152 25" fill="none" xmlns="http://www.w3.org/2000/svg">
<path d="M12.4999 22.9168C18.2529 22.9168 22.9166 18.2531 22.9166 12.5002C22.9166 6.7472 18.2529 2.0835 12.4999 2.0835C6.74695 2.0835 2.08325 6.7472 2.08325 12.5002C2.08325 18.2531 6.74695 22.9168 12.4999 22.9168Z" stroke="#246BFD" stroke-width="2" stroke-linecap="round" stroke-linejoin="round"/>
<path d="M2.08325 12.5H22.9166" stroke="#246BFD" stroke-width="2" stroke-linecap="round" stroke-linejoin="round"/>
<path d="M12.4999 2.0835C15.1054 4.93595 16.5861 8.6377 16.6666 12.5002C16.5861 16.3626 15.1054 20.0644 12.4999 22.9168C9.89442 20.0644 8.41372 16.3626 8.33325 12.5002C8.41372 8.6377 9.89442 4.93595 12.4999 2.0835Z" stroke="#246BFD" stroke-width="2" stroke-linecap="round" stroke-linejoin="round"/>
<path d="M42.642 18H40.392L44.4886 6.36364H47.0909L51.1932 18H48.9432L45.8352 8.75H45.7443L42.642 18ZM42.7159 13.4375H48.8523V15.1307H42.7159V13.4375ZM52.6349 21.2727V9.27273H54.6577V10.7159H54.777C54.883 10.5038 55.0327 10.2784 55.2259 10.0398C55.419 9.79735 55.6804 9.59091 56.0099 9.42045C56.3395 9.24621 56.7599 9.15909 57.2713 9.15909C57.9455 9.15909 58.5535 9.33144 59.0952 9.67614C59.6406 10.017 60.0724 10.5227 60.3906 11.1932C60.7126 11.8598 60.8736 12.678 60.8736 13.6477C60.8736 14.6061 60.7164 15.4205 60.402 16.0909C60.0876 16.7614 59.6596 17.2727 59.1179 17.625C58.5762 17.9773 57.9626 18.1534 57.277 18.1534C56.777 18.1534 56.3622 18.0701 56.0327 17.9034C55.7031 17.7367 55.438 17.536 55.2372 17.3011C55.0402 17.0625 54.8868 16.8371 54.777 16.625H54.6918V21.2727H52.6349ZM54.652 13.6364C54.652 14.2008 54.7315 14.6951 54.8906 15.1193C55.0535 15.5436 55.2865 15.875 55.5895 16.1136C55.8963 16.3485 56.2675 16.4659 56.7031 16.4659C57.1577 16.4659 57.5384 16.3447 57.8452 16.1023C58.152 15.8561 58.383 15.5208 58.5384 15.0966C58.6974 14.6686 58.777 14.1818 58.777 13.6364C58.777 13.0947 58.6993 12.6136 58.544 12.1932C58.3887 11.7727 58.1577 11.4432 57.8509 11.2045C57.544 10.9659 57.1615 10.8466 56.7031 10.8466C56.2637 10.8466 55.8906 10.9621 55.5838 11.1932C55.277 11.4242 55.044 11.7481 54.8849 12.1648C54.7296 12.5814 54.652 13.072 54.652 13.6364ZM62.6349 21.2727V9.27273H64.6577V10.7159H64.777C64.883 10.5038 65.0327 10.2784 65.2259 10.0398C65.419 9.79735 65.6804 9.59091 66.0099 9.42045C66.3395 9.24621 66.7599 9.15909 67.2713 9.15909C67.9455 9.15909 68.5535 9.33144 69.0952 9.67614C69.6406 10.017 70.0724 10.5227 70.3906 11.1932C70.7126 11.8598 70.8736 12.678 70.8736 13.6477C70.8736 14.6061 70.7164 15.4205 70.402 16.0909C70.0876 16.7614 69.6596 17.2727 69.1179 17.625C68.5762 17.9773 67.9626 18.1534 67.277 18.1534C66.777 18.1534 66.3622 18.0701 66.0327 17.9034C65.7031 17.7367 65.438 17.536 65.2372 17.3011C65.0402 17.0625 64.8868 16.8371 64.777 16.625H64.6918V21.2727H62.6349ZM64.652 13.6364C64.652 14.2008 64.7315 14.6951 64.8906 15.1193C65.0535 15.5436 65.2865 15.875 65.5895 16.1136C65.8963 16.3485 66.2675 16.4659 66.7031 16.4659C67.1577 16.4659 67.5384 16.3447 67.8452 16.1023C68.152 15.8561 68.383 15.5208 68.5384 15.0966C68.6974 14.6686 68.777 14.1818 68.777 13.6364C68.777 13.0947 68.6993 12.6136 68.544 12.1932C68.3887 11.7727 68.1577 11.4432 67.8509 11.2045C67.544 10.9659 67.1615 10.8466 66.7031 10.8466C66.2637 10.8466 65.8906 10.9621 65.5838 11.1932C65.277 11.4242 65.044 11.7481 64.8849 12.1648C64.7296 12.5814 64.652 13.072 64.652 13.6364ZM76.6946 18V6.36364H78.8026V16.233H83.9276V18H76.6946ZM88.1776 18.1761C87.6245 18.1761 87.1264 18.0777 86.6832 17.8807C86.2438 17.6799 85.8954 17.3845 85.6378 16.9943C85.384 16.6042 85.2571 16.1231 85.2571 15.5511C85.2571 15.0587 85.348 14.6515 85.5298 14.3295C85.7116 14.0076 85.9598 13.75 86.2741 13.5568C86.5885 13.3636 86.9427 13.2178 87.3366 13.1193C87.7344 13.017 88.1454 12.9432 88.5696 12.8977C89.081 12.8447 89.4957 12.7973 89.8139 12.7557C90.1321 12.7102 90.3632 12.642 90.5071 12.5511C90.6548 12.4564 90.7287 12.3106 90.7287 12.1136V12.0795C90.7287 11.6515 90.6018 11.3201 90.348 11.0852C90.0942 10.8504 89.7287 10.733 89.2514 10.733C88.7476 10.733 88.348 10.8428 88.0526 11.0625C87.7609 11.2822 87.5639 11.5417 87.4616 11.8409L85.5412 11.5682C85.6927 11.0379 85.9427 10.5947 86.2912 10.2386C86.6397 9.87879 87.0658 9.60985 87.5696 9.43182C88.0734 9.25 88.6302 9.15909 89.2401 9.15909C89.6605 9.15909 90.0791 9.20833 90.4957 9.30682C90.9124 9.4053 91.2931 9.56818 91.6378 9.79545C91.9825 10.0189 92.259 10.3239 92.4673 10.7102C92.6795 11.0966 92.7855 11.5795 92.7855 12.1591V18H90.8082V16.8011H90.7401C90.6151 17.0436 90.4389 17.2708 90.2116 17.483C89.9882 17.6913 89.706 17.8598 89.3651 17.9886C89.0279 18.1136 88.6321 18.1761 88.1776 18.1761ZM88.7116 16.6648C89.1245 16.6648 89.4825 16.5833 89.7855 16.4205C90.0885 16.2538 90.3215 16.0341 90.4844 15.7614C90.651 15.4886 90.7344 15.1913 90.7344 14.8693V13.8409C90.67 13.8939 90.5601 13.9432 90.4048 13.9886C90.2533 14.0341 90.0829 14.0739 89.8935 14.108C89.7041 14.142 89.5166 14.1723 89.331 14.1989C89.1454 14.2254 88.9844 14.2481 88.848 14.267C88.5412 14.3087 88.2666 14.3769 88.0241 14.4716C87.7817 14.5663 87.5904 14.6989 87.4503 14.8693C87.3101 15.036 87.2401 15.2519 87.2401 15.517C87.2401 15.8958 87.3783 16.1818 87.6548 16.375C87.9313 16.5682 88.2836 16.6648 88.7116 16.6648ZM96.9105 12.8864V18H94.8537V9.27273H96.8196V10.7557H96.9219C97.1226 10.267 97.4427 9.87879 97.8821 9.59091C98.3253 9.30303 98.8726 9.15909 99.5241 9.15909C100.126 9.15909 100.651 9.28788 101.098 9.54545C101.549 9.80303 101.897 10.1761 102.143 10.6648C102.393 11.1534 102.517 11.7462 102.513 12.4432V18H100.456V12.7614C100.456 12.178 100.304 11.7216 100.001 11.392C99.7022 11.0625 99.2874 10.8977 98.7571 10.8977C98.3973 10.8977 98.0772 10.9773 97.7969 11.1364C97.5204 11.2917 97.3026 11.517 97.1435 11.8125C96.9882 12.108 96.9105 12.4659 96.9105 12.8864ZM108.399 21.4545C107.661 21.4545 107.026 21.3542 106.496 21.1534C105.965 20.9564 105.539 20.6913 105.217 20.358C104.895 20.0246 104.672 19.6553 104.547 19.25L106.399 18.8011C106.482 18.9716 106.604 19.1402 106.763 19.3068C106.922 19.4773 107.136 19.6174 107.405 19.7273C107.678 19.8409 108.02 19.8977 108.433 19.8977C109.017 19.8977 109.5 19.7557 109.882 19.4716C110.265 19.1913 110.456 18.7292 110.456 18.0852V16.4318H110.354C110.248 16.6439 110.092 16.8617 109.888 17.0852C109.687 17.3087 109.42 17.4962 109.087 17.6477C108.757 17.7992 108.342 17.875 107.842 17.875C107.172 17.875 106.564 17.7178 106.018 17.4034C105.477 17.0852 105.045 16.6117 104.723 15.983C104.405 15.3504 104.246 14.5587 104.246 13.608C104.246 12.6496 104.405 11.8409 104.723 11.1818C105.045 10.5189 105.479 10.017 106.024 9.67614C106.57 9.33144 107.178 9.15909 107.848 9.15909C108.359 9.15909 108.78 9.24621 109.109 9.42045C109.443 9.59091 109.708 9.79735 109.905 10.0398C110.102 10.2784 110.251 10.5038 110.354 10.7159H110.467V9.27273H112.496V18.142C112.496 18.8883 112.318 19.5057 111.962 19.9943C111.606 20.483 111.119 20.8485 110.501 21.0909C109.884 21.3333 109.183 21.4545 108.399 21.4545ZM108.416 16.2614C108.852 16.2614 109.223 16.1553 109.53 15.9432C109.837 15.7311 110.07 15.4261 110.229 15.0284C110.388 14.6307 110.467 14.1534 110.467 13.5966C110.467 13.0473 110.388 12.5663 110.229 12.1534C110.073 11.7405 109.842 11.4205 109.536 11.1932C109.232 10.9621 108.859 10.8466 108.416 10.8466C107.958 10.8466 107.575 10.9659 107.268 11.2045C106.962 11.4432 106.731 11.7708 106.575 12.1875C106.42 12.6004 106.342 13.0701 106.342 13.5966C106.342 14.1307 106.42 14.5985 106.575 15C106.734 15.3977 106.967 15.7083 107.274 15.9318C107.585 16.1515 107.965 16.2614 108.416 16.2614ZM120.166 14.3295V9.27273H122.223V18H120.229V16.4489H120.138C119.941 16.9375 119.617 17.3371 119.166 17.6477C118.719 17.9583 118.168 18.1136 117.513 18.1136C116.941 18.1136 116.435 17.9867 115.996 17.733C115.56 17.4754 115.219 17.1023 114.973 16.6136C114.727 16.1212 114.604 15.5265 114.604 14.8295V9.27273H116.661V14.5114C116.661 15.0644 116.812 15.5038 117.115 15.8295C117.418 16.1553 117.816 16.3182 118.308 16.3182C118.611 16.3182 118.905 16.2443 119.189 16.0966C119.473 15.9489 119.706 15.7292 119.888 15.4375C120.073 15.142 120.166 14.7727 120.166 14.3295ZM126.849 18.1761C126.296 18.1761 125.798 18.0777 125.355 17.8807C124.916 17.6799 124.567 17.3845 124.31 16.9943C124.056 16.6042 123.929 16.1231 123.929 15.5511C123.929 15.0587 124.02 14.6515 124.202 14.3295C124.384 14.0076 124.632 13.75 124.946 13.5568C125.26 13.3636 125.615 13.2178 126.009 13.1193C126.406 13.017 126.817 12.9432 127.241 12.8977C127.753 12.8447 128.168 12.7973 128.486 12.7557C128.804 12.7102 129.035 12.642 129.179 12.5511C129.327 12.4564 129.401 12.3106 129.401 12.1136V12.0795C129.401 11.6515 129.274 11.3201 129.02 11.0852C128.766 10.8504 128.401 10.733 127.923 10.733C127.42 10.733 127.02 10.8428 126.724 11.0625C126.433 11.2822 126.236 11.5417 126.134 11.8409L124.213 11.5682C124.365 11.0379 124.615 10.5947 124.963 10.2386C125.312 9.87879 125.738 9.60985 126.241 9.43182C126.745 9.25 127.302 9.15909 127.912 9.15909C128.332 9.15909 128.751 9.20833 129.168 9.30682C129.584 9.4053 129.965 9.56818 130.31 9.79545C130.654 10.0189 130.931 10.3239 131.139 10.7102C131.351 11.0966 131.457 11.5795 131.457 12.1591V18H129.48V16.8011H129.412C129.287 17.0436 129.111 17.2708 128.884 17.483C128.66 17.6913 128.378 17.8598 128.037 17.9886C127.7 18.1136 127.304 18.1761 126.849 18.1761ZM127.384 16.6648C127.796 16.6648 128.154 16.5833 128.457 16.4205C128.76 16.2538 128.993 16.0341 129.156 15.7614C129.323 15.4886 129.406 15.1913 129.406 14.8693V13.8409C129.342 13.8939 129.232 13.9432 129.077 13.9886C128.925 14.0341 128.755 14.0739 128.565 14.108C128.376 14.142 128.188 14.1723 128.003 14.1989C127.817 14.2254 127.656 14.2481 127.52 14.267C127.213 14.3087 126.938 14.3769 126.696 14.4716C126.454 14.5663 126.262 14.6989 126.122 14.8693C125.982 15.036 125.912 15.2519 125.912 15.517C125.912 15.8958 126.05 16.1818 126.327 16.375C126.603 16.5682 126.955 16.6648 127.384 16.6648ZM137.321 21.4545C136.582 21.4545 135.948 21.3542 135.418 21.1534C134.887 20.9564 134.461 20.6913 134.139 20.358C133.817 20.0246 133.594 19.6553 133.469 19.25L135.321 18.8011C135.404 18.9716 135.526 19.1402 135.685 19.3068C135.844 19.4773 136.058 19.6174 136.327 19.7273C136.599 19.8409 136.942 19.8977 137.355 19.8977C137.938 19.8977 138.421 19.7557 138.804 19.4716C139.187 19.1913 139.378 18.7292 139.378 18.0852V16.4318H139.276C139.17 16.6439 139.014 16.8617 138.81 17.0852C138.609 17.3087 138.342 17.4962 138.009 17.6477C137.679 17.7992 137.264 17.875 136.764 17.875C136.094 17.875 135.486 17.7178 134.94 17.4034C134.399 17.0852 133.967 16.6117 133.645 15.983C133.327 15.3504 133.168 14.5587 133.168 13.608C133.168 12.6496 133.327 11.8409 133.645 11.1818C133.967 10.5189 134.401 10.017 134.946 9.67614C135.491 9.33144 136.099 9.15909 136.77 9.15909C137.281 9.15909 137.702 9.24621 138.031 9.42045C138.365 9.59091 138.63 9.79735 138.827 10.0398C139.024 10.2784 139.173 10.5038 139.276 10.7159H139.389V9.27273H141.418V18.142C141.418 18.8883 141.24 19.5057 140.884 19.9943C140.527 20.483 140.041 20.8485 139.423 21.0909C138.806 21.3333 138.105 21.4545 137.321 21.4545ZM137.338 16.2614C137.774 16.2614 138.145 16.1553 138.452 15.9432C138.759 15.7311 138.991 15.4261 139.151 15.0284C139.31 14.6307 139.389 14.1534 139.389 13.5966C139.389 13.0473 139.31 12.5663 139.151 12.1534C138.995 11.7405 138.764 11.4205 138.457 11.1932C138.154 10.9621 137.781 10.8466 137.338 10.8466C136.88 10.8466 136.497 10.9659 136.19 11.2045C135.884 11.4432 135.652 11.7708 135.497 12.1875C135.342 12.6004 135.264 13.0701 135.264 13.5966C135.264 14.1307 135.342 14.5985 135.497 15C135.656 15.3977 135.889 15.7083 136.196 15.9318C136.507 16.1515 136.887 16.2614 137.338 16.2614ZM147.389 18.1705C146.514 18.1705 145.759 17.9886 145.122 17.625C144.49 17.2576 144.003 16.7386 143.662 16.0682C143.321 15.3939 143.151 14.6004 143.151 13.6875C143.151 12.7898 143.321 12.0019 143.662 11.3239C144.007 10.642 144.488 10.1117 145.105 9.73295C145.723 9.35038 146.448 9.15909 147.281 9.15909C147.819 9.15909 148.327 9.24621 148.804 9.42045C149.285 9.59091 149.709 9.85606 150.077 10.2159C150.448 10.5758 150.74 11.0341 150.952 11.5909C151.164 12.1439 151.27 12.803 151.27 13.5682V14.1989H144.116V12.8125H149.298C149.295 12.4186 149.209 12.0682 149.043 11.7614C148.876 11.4508 148.643 11.2064 148.344 11.0284C148.048 10.8504 147.704 10.7614 147.31 10.7614C146.889 10.7614 146.52 10.8636 146.202 11.0682C145.884 11.2689 145.635 11.5341 145.457 11.8636C145.283 12.1894 145.194 12.5473 145.19 12.9375V14.1477C145.19 14.6553 145.283 15.0909 145.469 15.4545C145.654 15.8144 145.914 16.0909 146.247 16.2841C146.58 16.4735 146.971 16.5682 147.418 16.5682C147.717 16.5682 147.988 16.5265 148.23 16.4432C148.473 16.3561 148.683 16.2292 148.861 16.0625C149.039 15.8958 149.173 15.6894 149.264 15.4432L151.185 15.6591C151.063 16.1667 150.832 16.6098 150.491 16.9886C150.154 17.3636 149.723 17.6553 149.196 17.8636C148.67 18.0682 148.067 18.1705 147.389 18.1705Z" fill="#343434"/>
</svg>
