<svg width="25" height="25" viewBox="0 0 25 25" fill="none" xmlns="http://www.w3.org/2000/svg">
<path d="M23.9582 19.7917C23.9582 20.3442 23.7387 20.8741 23.348 21.2648C22.9573 21.6555 22.4274 21.875 21.8748 21.875H3.12484C2.5723 21.875 2.0424 21.6555 1.6517 21.2648C1.261 20.8741 1.0415 20.3442 1.0415 19.7917V8.33333C1.0415 7.7808 1.261 7.25089 1.6517 6.86019C2.0424 6.46949 2.5723 6.25 3.12484 6.25H7.2915L9.37484 3.125H15.6248L17.7082 6.25H21.8748C22.4274 6.25 22.9573 6.46949 23.348 6.86019C23.7387 7.25089 23.9582 7.7808 23.9582 8.33333V19.7917Z" stroke="#246BFD" stroke-width="2" stroke-linecap="round" stroke-linejoin="round"/>
<path d="M12.5002 17.7083C14.8013 17.7083 16.6668 15.8429 16.6668 13.5417C16.6668 11.2405 14.8013 9.375 12.5002 9.375C10.199 9.375 8.3335 11.2405 8.3335 13.5417C8.3335 15.8429 10.199 17.7083 12.5002 17.7083Z" stroke="#246BFD" stroke-width="2" stroke-linecap="round" stroke-linejoin="round"/>
</svg>
