<svg width="24" height="24" viewBox="0 0 24 24" fill="none" xmlns="http://www.w3.org/2000/svg">
<path d="M9 10C9.55228 10 10 9.55228 10 9C10 8.44772 9.55228 8 9 8C8.44772 8 8 8.44772 8 9C8 9.55228 8.44772 10 9 10Z" fill="#246BFD"/>
<path d="M14 16C14.5523 16 15 15.5523 15 15C15 14.4477 14.5523 14 14 14C13.4477 14 13 14.4477 13 15C13 15.5523 13.4477 16 14 16Z" fill="#246BFD"/>
<path d="M13.8135 8.58105L8.81348 15.5811" stroke="#246BFD" stroke-width="2" stroke-linecap="round"/>
<path d="M11.2694 2.24621C11.6647 1.8233 12.3353 1.8233 12.7306 2.24621L14.0931 3.70399C14.6845 4.33678 15.5205 4.68307 16.3861 4.65382L18.3804 4.58643C18.9589 4.56687 19.4331 5.0411 19.4136 5.61963L19.3462 7.61385C19.3169 8.47949 19.6632 9.31553 20.296 9.90694L21.7538 11.2694C22.1767 11.6647 22.1767 12.3353 21.7538 12.7306L20.296 14.0931C19.6632 14.6845 19.3169 15.5205 19.3462 16.3861L19.4136 18.3804C19.4331 18.9589 18.9589 19.4331 18.3804 19.4136L16.3861 19.3462C15.5205 19.3169 14.6845 19.6632 14.0931 20.296L12.7306 21.7538C12.3353 22.1767 11.6647 22.1767 11.2694 21.7538L9.90694 20.296C9.31553 19.6632 8.47949 19.3169 7.61385 19.3462L5.61963 19.4136C5.0411 19.4331 4.56687 18.9589 4.58643 18.3804L4.65382 16.3861C4.68307 15.5205 4.33678 14.6845 3.70399 14.0931L2.24621 12.7306C1.8233 12.3353 1.8233 11.6647 2.24621 11.2694L3.70399 9.90694C4.33678 9.31553 4.68307 8.47949 4.65382 7.61385L4.58643 5.61963C4.56687 5.0411 5.0411 4.56687 5.61963 4.58643L7.61385 4.65382C8.47949 4.68307 9.31553 4.33678 9.90694 3.70399L11.2694 2.24621Z" stroke="#246BFD" stroke-width="2"/>
</svg>
