<svg width="25" height="25" viewBox="0 0 25 25" fill="none" xmlns="http://www.w3.org/2000/svg">
<path d="M12.4999 22.9168C18.2529 22.9168 22.9166 18.2531 22.9166 12.5002C22.9166 6.7472 18.2529 2.0835 12.4999 2.0835C6.74695 2.0835 2.08325 6.7472 2.08325 12.5002C2.08325 18.2531 6.74695 22.9168 12.4999 22.9168Z" stroke="#246BFD" stroke-width="2" stroke-linecap="round" stroke-linejoin="round"/>
<path d="M9.46875 9.3751C9.71365 8.67893 10.197 8.09188 10.8333 7.71795C11.4695 7.34402 12.2176 7.20733 12.945 7.3321C13.6724 7.45686 14.3321 7.83503 14.8074 8.39961C15.2826 8.9642 15.5428 9.67877 15.5417 10.4168C15.5417 12.5001 12.4167 13.5418 12.4167 13.5418" stroke="#246BFD" stroke-width="2" stroke-linecap="round" stroke-linejoin="round"/>
<path d="M12.5 17.7085H12.5104" stroke="#246BFD" stroke-width="2" stroke-linecap="round" stroke-linejoin="round"/>
</svg>
