<svg width="25" height="25" viewBox="0 0 25 25" fill="none" xmlns="http://www.w3.org/2000/svg">
<path d="M10.4165 13.5415C10.8639 14.1395 11.4346 14.6344 12.09 14.9924C12.7454 15.3505 13.4702 15.5635 14.2151 15.6168C14.96 15.6702 15.7077 15.5627 16.4075 15.3017C17.1072 15.0406 17.7427 14.6322 18.2707 14.104L21.3957 10.979C22.3444 9.99666 22.8694 8.68103 22.8575 7.31542C22.8456 5.94981 22.2979 4.6435 21.3322 3.67783C20.3666 2.71216 19.0602 2.16441 17.6946 2.15254C16.329 2.14067 15.0134 2.66564 14.0311 3.61438L12.2394 5.39563" stroke="#246BFD" stroke-width="2" stroke-linecap="round" stroke-linejoin="round"/>
<path d="M14.5833 11.4583C14.136 10.8602 13.5652 10.3654 12.9098 10.0073C12.2544 9.64922 11.5296 9.43629 10.7847 9.38294C10.0398 9.32958 9.29206 9.43707 8.59231 9.69809C7.89256 9.95912 7.25714 10.3676 6.72913 10.8958L3.60413 14.0208C2.65539 15.0031 2.13042 16.3187 2.14229 17.6843C2.15415 19.0499 2.70191 20.3563 3.66758 21.3219C4.63324 22.2876 5.93956 22.8353 7.30517 22.8472C8.67077 22.8591 9.98641 22.3341 10.9687 21.3854L12.75 19.6041" stroke="#246BFD" stroke-width="2" stroke-linecap="round" stroke-linejoin="round"/>
</svg>
