<svg width="25" height="25" viewBox="0 0 25 25" fill="none" xmlns="http://www.w3.org/2000/svg">
<path d="M19.7917 11.4585H5.20833C4.05774 11.4585 3.125 12.3912 3.125 13.5418V20.8335C3.125 21.9841 4.05774 22.9168 5.20833 22.9168H19.7917C20.9423 22.9168 21.875 21.9841 21.875 20.8335V13.5418C21.875 12.3912 20.9423 11.4585 19.7917 11.4585Z" stroke="#246BFD" stroke-width="2" stroke-linecap="round" stroke-linejoin="round"/>
<path d="M7.29175 11.4585V7.29183C7.29175 5.91049 7.84048 4.58573 8.81723 3.60898C9.79399 2.63223 11.1187 2.0835 12.5001 2.0835C13.8814 2.0835 15.2062 2.63223 16.1829 3.60898C17.1597 4.58573 17.7084 5.91049 17.7084 7.29183V11.4585" stroke="#246BFD" stroke-width="2" stroke-linecap="round" stroke-linejoin="round"/>
</svg>
