<svg width="326" height="356" viewBox="0 0 326 356" fill="none" xmlns="http://www.w3.org/2000/svg">
<path d="M325 187.09C325 223.638 308.411 265.656 282.921 298.546C257.418 331.452 223.186 355 188.033 355C170.438 355 149.94 349.162 129.051 339.2C108.173 329.242 86.9677 315.194 67.9734 298.847C48.9779 282.498 32.2191 263.87 20.2161 244.768C8.20711 225.657 1 206.137 1 187.983C1 151.325 11.6533 104.487 31.1689 66.839C50.7129 29.1356 78.9442 1 113.953 1C131.52 1 153.505 8.01156 176.665 19.7697C199.802 31.5167 224.019 47.9537 246.023 66.6937C268.03 85.4349 287.796 106.456 302.052 127.357C316.323 148.279 325 168.975 325 187.09Z" fill="#246BFD" fill-opacity="0.14" stroke="#528BFD" stroke-width="2"/>
</svg>
