<svg width="25" height="25" viewBox="0 0 25 25" fill="none" xmlns="http://www.w3.org/2000/svg">
<g clip-path="url(#clip0_212_19)">
<path d="M12.5 15.625C14.2259 15.625 15.625 14.2259 15.625 12.5C15.625 10.7741 14.2259 9.375 12.5 9.375C10.7741 9.375 9.375 10.7741 9.375 12.5C9.375 14.2259 10.7741 15.625 12.5 15.625Z" stroke="#246BFD" stroke-width="2" stroke-linecap="round" stroke-linejoin="round"/>
<path d="M20.2084 15.6248C20.0698 15.939 20.0284 16.2875 20.0897 16.6254C20.1509 16.9634 20.312 17.2752 20.5522 17.5207L20.6147 17.5832C20.8084 17.7767 20.962 18.0064 21.0669 18.2593C21.1717 18.5122 21.2257 18.7833 21.2257 19.0571C21.2257 19.3309 21.1717 19.602 21.0669 19.8549C20.962 20.1078 20.8084 20.3376 20.6147 20.5311C20.4212 20.7248 20.1914 20.8785 19.9385 20.9833C19.6856 21.0881 19.4145 21.1421 19.1407 21.1421C18.8669 21.1421 18.5958 21.0881 18.3429 20.9833C18.09 20.8785 17.8602 20.7248 17.6667 20.5311L17.6042 20.4686C17.3587 20.2284 17.0469 20.0674 16.709 20.0061C16.3711 19.9448 16.0226 19.9862 15.7084 20.1248C15.4003 20.2569 15.1376 20.4761 14.9525 20.7556C14.7674 21.0351 14.6681 21.3626 14.6667 21.6978V21.8748C14.6667 22.4274 14.4473 22.9573 14.0566 23.348C13.6659 23.7387 13.1359 23.9582 12.5834 23.9582C12.0309 23.9582 11.501 23.7387 11.1103 23.348C10.7196 22.9573 10.5001 22.4274 10.5001 21.8748V21.7811C10.492 21.4363 10.3804 21.1019 10.1798 20.8214C9.97915 20.5409 9.69876 20.3272 9.37508 20.2082C9.0609 20.0695 8.71238 20.0281 8.37447 20.0894C8.03656 20.1507 7.72475 20.3118 7.47925 20.5519L7.41675 20.6144C7.22326 20.8081 6.99349 20.9618 6.74058 21.0666C6.48767 21.1715 6.21657 21.2254 5.94279 21.2254C5.66901 21.2254 5.39791 21.1715 5.145 21.0666C4.89208 20.9618 4.66232 20.8081 4.46883 20.6144C4.27513 20.4209 4.12147 20.1912 4.01662 19.9383C3.91178 19.6853 3.85782 19.4142 3.85782 19.1405C3.85782 18.8667 3.91178 18.5956 4.01662 18.3427C4.12147 18.0898 4.27513 17.86 4.46883 17.6665L4.53133 17.604C4.77147 17.3585 4.93257 17.0467 4.99384 16.7088C5.05511 16.3709 5.01374 16.0224 4.87508 15.7082C4.74304 15.4001 4.52378 15.1373 4.24432 14.9522C3.96485 14.7672 3.63736 14.6678 3.30216 14.6665H3.12508C2.57255 14.6665 2.04264 14.447 1.65194 14.0563C1.26124 13.6656 1.04175 13.1357 1.04175 12.5832C1.04175 12.0306 1.26124 11.5007 1.65194 11.11C2.04264 10.7193 2.57255 10.4998 3.12508 10.4998H3.21883C3.56362 10.4918 3.898 10.3802 4.17852 10.1795C4.45903 9.9789 4.6727 9.69852 4.79175 9.37484C4.93041 9.06065 4.97177 8.71214 4.9105 8.37422C4.84923 8.03631 4.68814 7.7245 4.448 7.479L4.3855 7.4165C4.1918 7.22302 4.03813 6.99325 3.93329 6.74034C3.82845 6.48742 3.77448 6.21633 3.77448 5.94255C3.77448 5.66876 3.82845 5.39767 3.93329 5.14475C4.03813 4.89184 4.1918 4.66207 4.3855 4.46859C4.57898 4.27489 4.80875 4.12122 5.06166 4.01638C5.31458 3.91154 5.58567 3.85757 5.85946 3.85757C6.13324 3.85757 6.40434 3.91154 6.65725 4.01638C6.91016 4.12122 7.13993 4.27489 7.33341 4.46859L7.39591 4.53109C7.64141 4.77123 7.95322 4.93232 8.29113 4.99359C8.62905 5.05486 8.97756 5.0135 9.29175 4.87484H9.37508C9.68317 4.74279 9.94593 4.52354 10.131 4.24407C10.3161 3.9646 10.4154 3.63711 10.4167 3.30192V3.12484C10.4167 2.5723 10.6362 2.0424 11.0269 1.6517C11.4176 1.261 11.9475 1.0415 12.5001 1.0415C13.0526 1.0415 13.5825 1.261 13.9732 1.6517C14.3639 2.0424 14.5834 2.5723 14.5834 3.12484V3.21859C14.5848 3.55378 14.6841 3.88127 14.8692 4.16074C15.0542 4.44021 15.317 4.65946 15.6251 4.7915C15.9393 4.93017 16.2878 4.97153 16.6257 4.91026C16.9636 4.84899 17.2754 4.6879 17.5209 4.44775L17.5834 4.38525C17.7769 4.19155 18.0067 4.03789 18.2596 3.93305C18.5125 3.8282 18.7836 3.77424 19.0574 3.77424C19.3312 3.77424 19.6023 3.8282 19.8552 3.93305C20.1081 4.03789 20.3378 4.19155 20.5313 4.38525C20.725 4.57874 20.8787 4.80851 20.9835 5.06142C21.0884 5.31433 21.1423 5.58543 21.1423 5.85921C21.1423 6.13299 21.0884 6.40409 20.9835 6.657C20.8787 6.90992 20.725 7.13968 20.5313 7.33317L20.4688 7.39567C20.2287 7.64117 20.0676 7.95298 20.0063 8.29089C19.9451 8.6288 19.9864 8.97732 20.1251 9.2915V9.37484C20.2571 9.68293 20.4764 9.94569 20.7558 10.1308C21.0353 10.3158 21.3628 10.4152 21.698 10.4165H21.8751C22.4276 10.4165 22.9575 10.636 23.3482 11.0267C23.7389 11.4174 23.9584 11.9473 23.9584 12.4998C23.9584 13.0524 23.7389 13.5823 23.3482 13.973C22.9575 14.3637 22.4276 14.5832 21.8751 14.5832H21.7813C21.4461 14.5845 21.1186 14.6838 20.8392 14.8689C20.5597 15.054 20.3405 15.3167 20.2084 15.6248Z" stroke="#246BFD" stroke-width="2" stroke-linecap="round" stroke-linejoin="round"/>
</g>
<defs>
<clipPath id="clip0_212_19">
<rect width="25" height="25" fill="white"/>
</clipPath>
</defs>
</svg>
